<svg width="573" height="573" viewBox="0 0 573 573" fill="none" xmlns="http://www.w3.org/2000/svg">
<path opacity="0.7" d="M77.8489 191.481C77.8489 191.481 45.9019 273.979 90.7953 357.081C135.689 440.184 228.177 484.06 302.197 521.587C376.217 559.114 453.08 540.839 489.607 479.371C526.133 417.903 476.032 374.021 475.973 286.364C475.914 198.706 489.091 175.497 441.635 101.441C394.179 27.3827 277.69 10.9926 189.63 65.9192C101.571 120.846 77.8489 191.481 77.8489 191.481Z" fill="white"/>
<path d="M475.973 297.825C475.914 210.167 489.091 186.958 441.635 112.902C394.179 38.8436 277.69 22.4535 189.63 77.3802C101.57 132.307 77.8489 202.942 77.8489 202.942C77.8489 202.942 45.9019 285.44 90.7953 368.542C131.853 444.546 212.719 487.736 282.861 523.269H462.196C472.798 514.371 482.065 503.525 489.608 490.832C526.133 429.364 476.032 385.481 475.973 297.825Z" fill="#96EAC0"/>
<path opacity="0.7" d="M475.973 297.825C475.914 210.167 489.091 186.958 441.635 112.902C394.179 38.8436 277.69 22.4535 189.63 77.3802C101.57 132.307 77.8489 202.942 77.8489 202.942C77.8489 202.942 45.9019 285.44 90.7953 368.542C131.853 444.546 212.719 487.736 282.861 523.269H462.196C472.798 514.371 482.065 503.525 489.608 490.832C526.133 429.364 476.032 385.481 475.973 297.825Z" fill="white"/>
<path d="M263.344 58.1231C264.892 64.2565 264.13 52.9661 267.166 39.1533C270.203 25.3394 275.401 30.9422 275.401 30.9422" stroke="#263238" stroke-width="1.146" stroke-miterlimit="10" stroke-linecap="round" stroke-linejoin="round"/>
<path d="M262.39 44.0112L271.908 40.1079" stroke="#263238" stroke-width="1.146" stroke-miterlimit="10" stroke-linecap="round" stroke-linejoin="round"/>
<path d="M279.779 35.4302C279.779 35.4302 274.089 47.1939 282.665 52.195" stroke="#263238" stroke-width="1.146" stroke-miterlimit="10" stroke-linecap="round" stroke-linejoin="round"/>
<path d="M287.849 32.1216C287.849 32.1216 297.239 37.3382 291.357 48.632" stroke="#263238" stroke-width="1.146" stroke-miterlimit="10" stroke-linecap="round" stroke-linejoin="round"/>
<path d="M281.413 39.416L288.141 44.3289" stroke="#263238" stroke-width="1.146" stroke-miterlimit="10" stroke-linecap="round" stroke-linejoin="round"/>
<path d="M286.689 37.251L281.424 45.6317" stroke="#263238" stroke-width="1.146" stroke-miterlimit="10" stroke-linecap="round" stroke-linejoin="round"/>
<path d="M81.7166 335.115C81.7166 335.115 65.754 334.878 65.7322 348.66" stroke="#263238" stroke-width="1.146" stroke-miterlimit="10" stroke-linecap="round" stroke-linejoin="round"/>
<path d="M80.3976 343.789C80.0641 341.763 73.1113 339.252 71.9126 344.505C70.7128 349.757 79.3375 346.616 82.0089 344.144C82.0089 344.144 77.0627 348.961 78.6167 350.316" stroke="#263238" stroke-width="1.146" stroke-miterlimit="10" stroke-linecap="round" stroke-linejoin="round"/>
<path d="M81.3901 351.839C81.3901 351.839 79.2871 354.469 77.0181 353.221" stroke="#263238" stroke-width="1.146" stroke-miterlimit="10" stroke-linecap="round" stroke-linejoin="round"/>
<path d="M95.3358 342.601L83.3658 354.819C83.3658 354.819 89.3513 348.711 92.8822 350.651C97.2324 353.043 91.5906 359.572 86.939 354.89" stroke="#263238" stroke-width="1.146" stroke-miterlimit="10" stroke-linecap="round" stroke-linejoin="round"/>
<path d="M101.389 345.928C101.389 345.928 104.558 360.478 88.1789 360.998" stroke="#263238" stroke-width="1.146" stroke-miterlimit="10" stroke-linecap="round" stroke-linejoin="round"/>
<path d="M315.187 98.709L320.959 99.6579L321.044 112.782L333.691 89.7061L353.65 92.9905" stroke="#263238" stroke-width="1.146" stroke-miterlimit="10" stroke-linecap="round" stroke-linejoin="round"/>
<path d="M335.881 99.8115L344.663 115.309" stroke="#263238" stroke-width="1.146" stroke-miterlimit="10" stroke-linecap="round" stroke-linejoin="round"/>
<path d="M346.914 101.627L331.203 113.094" stroke="#263238" stroke-width="1.146" stroke-miterlimit="10" stroke-linecap="round" stroke-linejoin="round"/>
<path d="M236.26 122.06C234.782 120.178 226.271 121.517 227.996 127.555C229.719 133.593 236.764 125.543 238.106 121.517C238.106 121.517 235.757 129.213 238.106 129.725" stroke="#263238" stroke-width="1.146" stroke-miterlimit="10" stroke-linecap="round" stroke-linejoin="round"/>
<path d="M242.783 115.864L240.88 122.673C240.88 122.673 241.831 119.269 243.497 119.269C245.549 119.269 244.806 122.757 242.189 121.987" stroke="#263238" stroke-width="1.146" stroke-miterlimit="10" stroke-linecap="round" stroke-linejoin="round"/>
<path d="M403.309 199.204L399.295 213.701L408.07 223.295" stroke="#263238" stroke-width="1.146" stroke-miterlimit="10" stroke-linecap="round" stroke-linejoin="round"/>
<path d="M408.329 205.093L418.375 213.493" stroke="#263238" stroke-width="1.146" stroke-miterlimit="10" stroke-linecap="round" stroke-linejoin="round"/>
<path d="M415.245 203.024L410.899 213.691" stroke="#263238" stroke-width="1.146" stroke-miterlimit="10" stroke-linecap="round" stroke-linejoin="round"/>
<path d="M422.301 212.32C422.301 212.32 422.392 215.348 421.083 215.738" stroke="#263238" stroke-width="1.146" stroke-miterlimit="10" stroke-linecap="round" stroke-linejoin="round"/>
<path d="M423.579 201.755L429.633 206.257" stroke="#263238" stroke-width="1.146" stroke-miterlimit="10" stroke-linecap="round" stroke-linejoin="round"/>
<path d="M431.886 198.048L425.902 219.592" stroke="#263238" stroke-width="1.146" stroke-miterlimit="10" stroke-linecap="round" stroke-linejoin="round"/>
<path d="M432.176 190.571L441.895 201.572L437.755 213.604" stroke="#263238" stroke-width="1.146" stroke-miterlimit="10" stroke-linecap="round" stroke-linejoin="round"/>
<path d="M164.544 474.454L178.599 432.606L195.653 451.638L164.544 474.454Z" stroke="#263238" stroke-width="1.146" stroke-miterlimit="10" stroke-linecap="round" stroke-linejoin="round"/>
<path d="M191.478 454.7L187.877 450.581L191.712 447.258" stroke="#263238" stroke-width="1.146" stroke-miterlimit="10" stroke-linecap="round" stroke-linejoin="round"/>
<path d="M81.43 239.323C88.7359 236.297 92.2052 227.921 89.1789 220.615C86.1527 213.309 77.7768 209.84 70.4709 212.866C63.165 215.892 59.6956 224.268 62.7219 231.574C65.7482 238.88 74.1241 242.349 81.43 239.323Z" stroke="#263238" stroke-width="1.146" stroke-miterlimit="10" stroke-linecap="round" stroke-linejoin="round"/>
<path d="M91.8335 229.448C100.608 229.448 107.722 222.335 107.722 213.56C107.722 204.785 100.608 197.672 91.8335 197.672C83.0587 197.672 75.9454 204.785 75.9454 213.56C75.9454 222.335 83.0587 229.448 91.8335 229.448Z" stroke="#263238" stroke-width="1.146" stroke-miterlimit="10" stroke-linecap="round" stroke-linejoin="round"/>
<path d="M78.7646 212.052L76.8278 218.788" stroke="#263238" stroke-width="1.146" stroke-miterlimit="10" stroke-linecap="round" stroke-linejoin="round"/>
<path d="M81.5092 212.895L78.7645 222.592" stroke="#263238" stroke-width="1.146" stroke-miterlimit="10" stroke-linecap="round" stroke-linejoin="round"/>
<path d="M84.3754 214.52L81.5093 225.484" stroke="#263238" stroke-width="1.146" stroke-miterlimit="10" stroke-linecap="round" stroke-linejoin="round"/>
<path d="M87.5738 217.743L85.5282 228.145" stroke="#263238" stroke-width="1.146" stroke-miterlimit="10" stroke-linecap="round" stroke-linejoin="round"/>
<path d="M89.3811 221.133L87.5739 228.866" stroke="#263238" stroke-width="1.146" stroke-miterlimit="10" stroke-linecap="round" stroke-linejoin="round"/>
<path d="M62.2667 207.753C61.013 207.364 57.5899 210.619 60.2486 212.807C62.9073 214.994 63.5789 209.167 62.9303 206.932C62.9303 206.932 64.2676 211.137 65.487 210.637" stroke="#263238" stroke-width="1.146" stroke-miterlimit="10" stroke-linecap="round" stroke-linejoin="round"/>
<path d="M80.7368 189.372L85.291 197.719C85.291 197.719 83.0139 193.545 84.6183 191.983C86.5952 190.058 89.1519 194.117 85.9087 195.83" stroke="#263238" stroke-width="1.146" stroke-miterlimit="10" stroke-linecap="round" stroke-linejoin="round"/>
<path d="M164.497 188.383L170.972 194.51" stroke="#263238" stroke-width="1.146" stroke-miterlimit="10" stroke-linecap="round" stroke-linejoin="round"/>
<path d="M170.972 186.782L165.55 194.881" stroke="#263238" stroke-width="1.146" stroke-miterlimit="10" stroke-linecap="round" stroke-linejoin="round"/>
<path d="M177.34 189.107L183.816 186.7" stroke="#263238" stroke-width="1.146" stroke-miterlimit="10" stroke-linecap="round" stroke-linejoin="round"/>
<path d="M186.923 179.946L190.862 183.432" stroke="#263238" stroke-width="1.146" stroke-miterlimit="10" stroke-linecap="round" stroke-linejoin="round"/>
<path d="M193.88 175.755L188.892 192.875" stroke="#263238" stroke-width="1.146" stroke-miterlimit="10" stroke-linecap="round" stroke-linejoin="round"/>
<path d="M476.891 172.311L476.625 159.228H486.512C486.512 159.228 481.033 162.246 483.549 169.291C486.064 176.335 490.134 172.309 490.134 172.309" stroke="#263238" stroke-width="1.146" stroke-miterlimit="10" stroke-linecap="round" stroke-linejoin="round"/>
<path d="M460.14 395.562L471.391 387.82L486.292 388.864L487.224 407.752L476.287 415.572L462.789 414.589L460.14 395.562Z" stroke="#263238" stroke-width="1.146" stroke-miterlimit="10" stroke-linecap="round" stroke-linejoin="round"/>
<path d="M462.789 414.588L473.682 406.745L487.224 407.751" stroke="#263238" stroke-width="1.146" stroke-miterlimit="10" stroke-linecap="round" stroke-linejoin="round"/>
<path d="M473.682 406.745L471.391 387.82" stroke="#263238" stroke-width="1.146" stroke-miterlimit="10" stroke-linecap="round" stroke-linejoin="round"/>
<path d="M460.14 395.562L475.009 397.283L486.292 388.865" stroke="#263238" stroke-width="1.146" stroke-miterlimit="10" stroke-linecap="round" stroke-linejoin="round"/>
<path d="M475.009 397.283L476.287 415.572" stroke="#263238" stroke-width="1.146" stroke-miterlimit="10" stroke-linecap="round" stroke-linejoin="round"/>
<path d="M462.187 253.711L461.708 278.895L483.774 268.874L462.187 253.711Z" stroke="#263238" stroke-width="1.146" stroke-miterlimit="10" stroke-linecap="round" stroke-linejoin="round"/>
<path d="M462.187 253.711L472.701 273.751" stroke="#263238" stroke-width="1.146" stroke-miterlimit="10" stroke-linecap="round" stroke-linejoin="round"/>
<path d="M471.016 270.539L473.576 269.303L475.291 272.726" stroke="#263238" stroke-width="1.146" stroke-miterlimit="10" stroke-linecap="round" stroke-linejoin="round"/>
<path d="M269.847 251.326L278.97 261.103" stroke="#263238" stroke-width="1.146" stroke-miterlimit="10" stroke-linecap="round" stroke-linejoin="round"/>
<path d="M279.043 250.012L271.376 260.506" stroke="#263238" stroke-width="1.146" stroke-miterlimit="10" stroke-linecap="round" stroke-linejoin="round"/>
<path d="M282.771 244.892C282.771 244.892 284.896 244.069 285.343 246.267C285.789 248.465 282.178 251.327 282.178 251.327H287.329" stroke="#263238" stroke-width="1.146" stroke-miterlimit="10" stroke-linecap="round" stroke-linejoin="round"/>
<path d="M127.82 104.861C128.755 93.1561 135.652 83.3555 145.292 78.2031" stroke="#263238" stroke-width="1.146" stroke-miterlimit="10" stroke-linecap="round" stroke-linejoin="round"/>
<path d="M153.167 139.795C144.631 137.757 137.468 132.461 132.938 125.384" stroke="#263238" stroke-width="1.146" stroke-miterlimit="10" stroke-linecap="round" stroke-linejoin="round"/>
<path d="M194.017 110.147C192.557 128.427 176.555 142.062 158.276 140.602" stroke="#263238" stroke-width="1.146" stroke-miterlimit="10" stroke-linecap="round" stroke-linejoin="round"/>
<path d="M163.561 74.4053C179.404 75.6705 191.759 87.8605 193.82 102.99" stroke="#263238" stroke-width="1.146" stroke-miterlimit="10" stroke-linecap="round" stroke-linejoin="round"/>
<path d="M175.241 133.061C170.344 135.811 164.606 137.185 158.587 136.705C142.459 135.417 130.43 121.301 131.718 105.173" stroke="#263238" stroke-width="1.146" stroke-miterlimit="10" stroke-linecap="round" stroke-linejoin="round"/>
<path d="M133.579 96.962C138.122 85.1662 150.008 77.2462 163.25 78.3028C179.378 79.5909 191.407 93.7074 190.119 109.835C189.59 116.467 186.891 122.406 182.776 127.01" stroke="#263238" stroke-width="1.146" stroke-miterlimit="10" stroke-linecap="round" stroke-linejoin="round"/>
<path d="M158.043 86.4233L160.918 107.504L177.128 102.467" stroke="#263238" stroke-width="1.146" stroke-miterlimit="10" stroke-linecap="round" stroke-linejoin="round"/>
<path d="M413.589 148.487C404.029 148.578 395.044 142.651 391.692 133.13C388.531 124.15 391.279 114.522 397.901 108.492" stroke="#263238" stroke-width="1.146" stroke-miterlimit="10" stroke-linecap="round" stroke-linejoin="round"/>
<path d="M435.128 132.915C432.93 139.347 427.914 144.746 421.005 147.178" stroke="#263238" stroke-width="1.146" stroke-miterlimit="10" stroke-linecap="round" stroke-linejoin="round"/>
<path d="M405.74 103.817C417.714 99.6025 430.838 105.892 435.053 117.865" stroke="#263238" stroke-width="1.146" stroke-miterlimit="10" stroke-linecap="round" stroke-linejoin="round"/>
<path d="M424.721 108.691C428.207 111.042 430.996 114.492 432.499 118.764C436.218 129.327 430.669 140.905 420.105 144.624C412.183 147.414 403.689 144.99 398.369 139.146" stroke="#263238" stroke-width="1.146" stroke-miterlimit="10" stroke-linecap="round" stroke-linejoin="round"/>
<path d="M394.246 132.231C390.527 121.668 396.076 110.09 406.64 106.371C410.601 104.976 414.705 104.884 418.484 105.872" stroke="#263238" stroke-width="1.146" stroke-miterlimit="10" stroke-linecap="round" stroke-linejoin="round"/>
<path d="M405.628 112.972L413.373 125.497L406.313 134.661" stroke="#263238" stroke-width="1.146" stroke-miterlimit="10" stroke-linecap="round" stroke-linejoin="round"/>
<path d="M250.938 468.06C250.938 461.71 254.15 456.111 259.036 452.795" stroke="#263238" stroke-width="1.146" stroke-miterlimit="10" stroke-linecap="round" stroke-linejoin="round"/>
<path d="M282.733 480.759C279.375 484.291 274.631 486.492 269.372 486.492C261.268 486.492 254.387 481.264 251.916 473.996" stroke="#263238" stroke-width="1.146" stroke-miterlimit="10" stroke-linecap="round" stroke-linejoin="round"/>
<path d="M269.372 449.625C279.553 449.625 287.805 457.879 287.805 468.059" stroke="#263238" stroke-width="1.146" stroke-miterlimit="10" stroke-linecap="round" stroke-linejoin="round"/>
<path d="M269.372 484.323C260.39 484.323 253.109 477.041 253.109 468.06" stroke="#263238" stroke-width="1.146" stroke-miterlimit="10" stroke-linecap="round" stroke-linejoin="round"/>
<path d="M256.707 457.856C259.688 454.16 264.254 451.797 269.372 451.797C278.354 451.797 285.635 459.079 285.635 468.06C285.635 474.17 282.266 479.494 277.283 482.273" stroke="#263238" stroke-width="1.146" stroke-miterlimit="10" stroke-linecap="round" stroke-linejoin="round"/>
<path d="M266.848 479.113L269.372 468.06L265.846 459.026" stroke="#263238" stroke-width="1.146" stroke-miterlimit="10" stroke-linecap="round" stroke-linejoin="round"/>
<path d="M54.6802 523.665H518.32" stroke="#263238" stroke-width="1.146" stroke-miterlimit="10" stroke-linecap="round" stroke-linejoin="round"/>
<path d="M289.923 282.003L282.373 425.8L186.696 420.772L187.492 405.532L194.246 276.976L254.493 280.139L289.923 282.003Z" fill="white"/>
<mask id="mask0_122_665" style="mask-type:luminance" maskUnits="userSpaceOnUse" x="186" y="276" width="104" height="150">
<path d="M289.923 282.003L282.373 425.8L186.696 420.772L187.492 405.532L194.246 276.976L254.493 280.139L289.923 282.003Z" fill="white"/>
</mask>
<g mask="url(#mask0_122_665)">
<path opacity="0.2" d="M260.063 366.249L238.507 368.026L244.795 395.175L187.492 405.532L194.246 276.976L254.493 280.139L260.063 366.249Z" fill="black" fill-opacity="0.7"/>
</g>
<path d="M289.923 282.003L282.373 425.8L186.696 420.772L187.492 405.532L194.246 276.976L254.493 280.139L289.923 282.003Z" stroke="#263238" stroke-width="1.146" stroke-miterlimit="10" stroke-linecap="round" stroke-linejoin="round"/>
<path d="M201.002 286.813L225.898 288.12" stroke="#263238" stroke-width="2.292" stroke-miterlimit="10" stroke-linecap="round" stroke-linejoin="round"/>
<path d="M200.751 291.593L217.68 292.482" stroke="#263238" stroke-width="2.292" stroke-miterlimit="10" stroke-linecap="round" stroke-linejoin="round"/>
<path d="M206.224 303.195L277.842 306.957" stroke="#263238" stroke-width="2.292" stroke-miterlimit="10" stroke-linecap="round" stroke-linejoin="round"/>
<path d="M205.973 307.975L277.591 311.737" stroke="#263238" stroke-width="2.292" stroke-miterlimit="10" stroke-linecap="round" stroke-linejoin="round"/>
<path d="M205.681 313.551L266.762 316.76" stroke="#263238" stroke-width="2.292" stroke-miterlimit="10" stroke-linecap="round" stroke-linejoin="round"/>
<path d="M211.535 318.95L205.705 318.643L205.398 324.473L211.229 324.779L211.535 318.95Z" stroke="#263238" stroke-width="1.146" stroke-miterlimit="10" stroke-linecap="round" stroke-linejoin="round"/>
<path d="M222.093 319.505L216.263 319.198L215.956 325.029L221.787 325.336L222.093 319.505Z" stroke="#263238" stroke-width="1.146" stroke-miterlimit="10" stroke-linecap="round" stroke-linejoin="round"/>
<path d="M232.676 320.041L226.845 319.735L226.539 325.565L232.37 325.871L232.676 320.041Z" stroke="#263238" stroke-width="1.146" stroke-miterlimit="10" stroke-linecap="round" stroke-linejoin="round"/>
<path d="M243.234 320.595L237.403 320.289L237.097 326.12L242.928 326.425L243.234 320.595Z" stroke="#263238" stroke-width="1.146" stroke-miterlimit="10" stroke-linecap="round" stroke-linejoin="round"/>
<path d="M202.411 302.996C202.369 303.801 201.682 304.419 200.877 304.376C200.072 304.334 199.453 303.648 199.496 302.842C199.538 302.037 200.225 301.419 201.03 301.461C201.836 301.503 202.453 302.19 202.411 302.996Z" fill="#263238"/>
<path d="M204.759 331.077L276.377 334.839" stroke="#263238" stroke-width="2.292" stroke-miterlimit="10" stroke-linecap="round" stroke-linejoin="round"/>
<path d="M204.508 335.857L276.126 339.619" stroke="#263238" stroke-width="2.292" stroke-miterlimit="10" stroke-linecap="round" stroke-linejoin="round"/>
<path d="M204.216 341.434L265.298 344.642" stroke="#263238" stroke-width="2.292" stroke-miterlimit="10" stroke-linecap="round" stroke-linejoin="round"/>
<path d="M210.098 346.814L204.267 346.508L203.961 352.339L209.792 352.645L210.098 346.814Z" stroke="#263238" stroke-width="1.146" stroke-miterlimit="10" stroke-linecap="round" stroke-linejoin="round"/>
<path d="M220.656 347.368L214.825 347.062L214.519 352.893L220.35 353.199L220.656 347.368Z" stroke="#263238" stroke-width="1.146" stroke-miterlimit="10" stroke-linecap="round" stroke-linejoin="round"/>
<path d="M231.212 347.922L225.382 347.616L225.076 353.447L230.906 353.753L231.212 347.922Z" stroke="#263238" stroke-width="1.146" stroke-miterlimit="10" stroke-linecap="round" stroke-linejoin="round"/>
<path d="M241.77 348.476L235.94 348.17L235.634 354.001L241.464 354.307L241.77 348.476Z" stroke="#263238" stroke-width="1.146" stroke-miterlimit="10" stroke-linecap="round" stroke-linejoin="round"/>
<path d="M200.948 330.878C200.905 331.682 200.219 332.301 199.413 332.259C198.609 332.216 197.99 331.53 198.032 330.724C198.075 329.92 198.761 329.301 199.567 329.343C200.371 329.386 200.99 330.072 200.948 330.878Z" fill="#263238"/>
<path d="M203.295 358.959L274.913 362.72" stroke="#263238" stroke-width="2.292" stroke-miterlimit="10" stroke-linecap="round" stroke-linejoin="round"/>
<path d="M203.044 363.739L274.662 367.5" stroke="#263238" stroke-width="2.292" stroke-miterlimit="10" stroke-linecap="round" stroke-linejoin="round"/>
<path d="M202.751 369.316L263.833 372.525" stroke="#263238" stroke-width="2.292" stroke-miterlimit="10" stroke-linecap="round" stroke-linejoin="round"/>
<path d="M208.605 374.713L202.774 374.406L202.468 380.237L208.298 380.543L208.605 374.713Z" stroke="#263238" stroke-width="1.146" stroke-miterlimit="10" stroke-linecap="round" stroke-linejoin="round"/>
<path d="M219.163 375.268L213.332 374.961L213.025 380.792L218.856 381.099L219.163 375.268Z" stroke="#263238" stroke-width="1.146" stroke-miterlimit="10" stroke-linecap="round" stroke-linejoin="round"/>
<path d="M229.749 375.804L223.919 375.498L223.613 381.329L229.443 381.635L229.749 375.804Z" stroke="#263238" stroke-width="1.146" stroke-miterlimit="10" stroke-linecap="round" stroke-linejoin="round"/>
<path d="M240.277 376.378L234.447 376.071L234.14 381.901L239.971 382.207L240.277 376.378Z" stroke="#263238" stroke-width="1.146" stroke-miterlimit="10" stroke-linecap="round" stroke-linejoin="round"/>
<path d="M199.483 358.759C199.441 359.563 198.754 360.182 197.949 360.14C197.144 360.097 196.525 359.411 196.568 358.605C196.61 357.801 197.296 357.182 198.102 357.224C198.907 357.268 199.525 357.954 199.483 358.759Z" fill="#263238"/>
<path d="M201.789 387.638L273.407 391.4" stroke="#263238" stroke-width="2.292" stroke-miterlimit="10" stroke-linecap="round" stroke-linejoin="round"/>
<path d="M201.538 392.418L273.156 396.18" stroke="#263238" stroke-width="2.292" stroke-miterlimit="10" stroke-linecap="round" stroke-linejoin="round"/>
<path d="M201.245 397.994L262.327 401.203" stroke="#263238" stroke-width="2.292" stroke-miterlimit="10" stroke-linecap="round" stroke-linejoin="round"/>
<path d="M207.13 403.374L201.299 403.068L200.993 408.899L206.824 409.205L207.13 403.374Z" stroke="#263238" stroke-width="1.146" stroke-miterlimit="10" stroke-linecap="round" stroke-linejoin="round"/>
<path d="M217.656 403.946L211.825 403.639L211.519 409.469L217.349 409.775L217.656 403.946Z" stroke="#263238" stroke-width="1.146" stroke-miterlimit="10" stroke-linecap="round" stroke-linejoin="round"/>
<path d="M228.213 404.501L222.382 404.194L222.075 410.024L227.906 410.33L228.213 404.501Z" stroke="#263238" stroke-width="1.146" stroke-miterlimit="10" stroke-linecap="round" stroke-linejoin="round"/>
<path d="M238.77 405.056L232.94 404.749L232.634 410.58L238.463 410.886L238.77 405.056Z" stroke="#263238" stroke-width="1.146" stroke-miterlimit="10" stroke-linecap="round" stroke-linejoin="round"/>
<path d="M197.976 387.437C197.934 388.242 197.247 388.861 196.442 388.818C195.637 388.776 195.018 388.089 195.061 387.284C195.103 386.479 195.79 385.861 196.595 385.903C197.401 385.946 198.018 386.633 197.976 387.437Z" fill="#263238"/>
<path d="M207.691 321.075L208.447 322.379L211.55 318.95" stroke="#263238" stroke-width="2.292" stroke-miterlimit="10" stroke-linecap="round" stroke-linejoin="round"/>
<path d="M227.36 349.717L228.116 351.021L231.219 347.592" stroke="#263238" stroke-width="2.292" stroke-miterlimit="10" stroke-linecap="round" stroke-linejoin="round"/>
<path d="M237.225 379.14L237.983 380.443L241.085 377.016" stroke="#263238" stroke-width="2.292" stroke-miterlimit="10" stroke-linecap="round" stroke-linejoin="round"/>
<path d="M213.848 405.406L214.605 406.71L217.708 403.282" stroke="#263238" stroke-width="2.292" stroke-miterlimit="10" stroke-linecap="round" stroke-linejoin="round"/>
<path d="M226.349 385.104L134.04 410.756L95.4882 272.012L133.707 261.395L187.798 246.368L222.776 372.249L226.349 385.104Z" fill="white"/>
<mask id="mask1_122_665" style="mask-type:luminance" maskUnits="userSpaceOnUse" x="95" y="246" width="132" height="165">
<path d="M226.349 385.104L134.04 410.756L95.4882 272.012L133.707 261.395L187.798 246.368L222.776 372.249L226.349 385.104Z" fill="white"/>
</mask>
<g mask="url(#mask1_122_665)">
<path opacity="0.2" d="M222.775 372.249L151.4 376.865L133.707 261.395L187.798 246.368L222.775 372.249Z" fill="black" fill-opacity="0.7"/>
</g>
<path d="M226.349 385.104L134.04 410.756L95.4882 272.012L133.707 261.395L187.798 246.368L222.776 372.249L226.349 385.104Z" stroke="#263238" stroke-width="1.146" stroke-miterlimit="10" stroke-linecap="round" stroke-linejoin="round"/>
<path d="M105.016 279.194L129.036 272.519" stroke="#263238" stroke-width="2.292" stroke-miterlimit="10" stroke-linecap="round" stroke-linejoin="round"/>
<path d="M106.297 283.806L122.632 279.266" stroke="#263238" stroke-width="2.292" stroke-miterlimit="10" stroke-linecap="round" stroke-linejoin="round"/>
<path d="M115.175 293.066L184.275 273.865" stroke="#263238" stroke-width="2.292" stroke-miterlimit="10" stroke-linecap="round" stroke-linejoin="round"/>
<path d="M116.457 297.678L185.556 278.477" stroke="#263238" stroke-width="2.292" stroke-miterlimit="10" stroke-linecap="round" stroke-linejoin="round"/>
<path d="M117.952 303.057L176.885 286.682" stroke="#263238" stroke-width="2.292" stroke-miterlimit="10" stroke-linecap="round" stroke-linejoin="round"/>
<path d="M125.224 306.317L119.598 307.88L121.161 313.506L126.787 311.943L125.224 306.317Z" stroke="#263238" stroke-width="1.146" stroke-miterlimit="10" stroke-linecap="round" stroke-linejoin="round"/>
<path d="M135.416 303.483L129.79 305.046L131.353 310.672L136.979 309.109L135.416 303.483Z" stroke="#263238" stroke-width="1.146" stroke-miterlimit="10" stroke-linecap="round" stroke-linejoin="round"/>
<path d="M145.602 300.653L139.976 302.216L141.539 307.842L147.165 306.279L145.602 300.653Z" stroke="#263238" stroke-width="1.146" stroke-miterlimit="10" stroke-linecap="round" stroke-linejoin="round"/>
<path d="M155.788 297.822L150.163 299.385L151.725 305.01L157.351 303.447L155.788 297.822Z" stroke="#263238" stroke-width="1.146" stroke-miterlimit="10" stroke-linecap="round" stroke-linejoin="round"/>
<path d="M111.497 294.088C111.712 294.865 111.258 295.669 110.481 295.885C109.704 296.1 108.9 295.646 108.684 294.869C108.469 294.092 108.923 293.288 109.7 293.072C110.477 292.857 111.281 293.312 111.497 294.088Z" fill="#263238"/>
<path d="M122.651 319.967L191.749 300.767" stroke="#263238" stroke-width="2.292" stroke-miterlimit="10" stroke-linecap="round" stroke-linejoin="round"/>
<path d="M123.932 324.579L193.03 305.378" stroke="#263238" stroke-width="2.292" stroke-miterlimit="10" stroke-linecap="round" stroke-linejoin="round"/>
<path d="M125.427 329.959L184.36 313.583" stroke="#263238" stroke-width="2.292" stroke-miterlimit="10" stroke-linecap="round" stroke-linejoin="round"/>
<path d="M132.702 333.216L127.077 334.779L128.64 340.405L134.265 338.842L132.702 333.216Z" stroke="#263238" stroke-width="1.146" stroke-miterlimit="10" stroke-linecap="round" stroke-linejoin="round"/>
<path d="M142.885 330.389L137.26 331.952L138.823 337.577L144.448 336.014L142.885 330.389Z" stroke="#263238" stroke-width="1.146" stroke-miterlimit="10" stroke-linecap="round" stroke-linejoin="round"/>
<path d="M153.071 327.558L147.445 329.121L149.008 334.747L154.634 333.184L153.071 327.558Z" stroke="#263238" stroke-width="1.146" stroke-miterlimit="10" stroke-linecap="round" stroke-linejoin="round"/>
<path d="M163.262 324.724L157.636 326.287L159.199 331.913L164.825 330.35L163.262 324.724Z" stroke="#263238" stroke-width="1.146" stroke-miterlimit="10" stroke-linecap="round" stroke-linejoin="round"/>
<path d="M118.972 320.989C119.187 321.766 118.734 322.57 117.957 322.786C117.18 323.001 116.375 322.548 116.16 321.771C115.944 320.994 116.399 320.189 117.175 319.974C117.952 319.758 118.757 320.213 118.972 320.989Z" fill="#263238"/>
<path d="M130.126 346.869L199.224 327.667" stroke="#263238" stroke-width="2.292" stroke-miterlimit="10" stroke-linecap="round" stroke-linejoin="round"/>
<path d="M131.407 351.48L200.505 332.279" stroke="#263238" stroke-width="2.292" stroke-miterlimit="10" stroke-linecap="round" stroke-linejoin="round"/>
<path d="M132.902 356.861L191.836 340.485" stroke="#263238" stroke-width="2.292" stroke-miterlimit="10" stroke-linecap="round" stroke-linejoin="round"/>
<path d="M140.173 360.121L134.547 361.684L136.11 367.31L141.736 365.747L140.173 360.121Z" stroke="#263238" stroke-width="1.146" stroke-miterlimit="10" stroke-linecap="round" stroke-linejoin="round"/>
<path d="M150.363 357.288L144.737 358.851L146.3 364.475L151.926 362.912L150.363 357.288Z" stroke="#263238" stroke-width="1.146" stroke-miterlimit="10" stroke-linecap="round" stroke-linejoin="round"/>
<path d="M160.546 354.46L154.92 356.023L156.483 361.649L162.109 360.086L160.546 354.46Z" stroke="#263238" stroke-width="1.146" stroke-miterlimit="10" stroke-linecap="round" stroke-linejoin="round"/>
<path d="M170.731 351.63L165.106 353.193L166.669 358.819L172.294 357.256L170.731 351.63Z" stroke="#263238" stroke-width="1.146" stroke-miterlimit="10" stroke-linecap="round" stroke-linejoin="round"/>
<path d="M126.447 347.89C126.663 348.667 126.209 349.471 125.432 349.687C124.655 349.902 123.851 349.448 123.635 348.671C123.42 347.894 123.873 347.09 124.65 346.875C125.426 346.659 126.231 347.114 126.447 347.89Z" fill="#263238"/>
<path d="M137.815 374.538L206.913 355.338" stroke="#263238" stroke-width="2.292" stroke-miterlimit="10" stroke-linecap="round" stroke-linejoin="round"/>
<path d="M139.096 379.149L208.194 359.949" stroke="#263238" stroke-width="2.292" stroke-miterlimit="10" stroke-linecap="round" stroke-linejoin="round"/>
<path d="M140.59 384.53L199.524 368.155" stroke="#263238" stroke-width="2.292" stroke-miterlimit="10" stroke-linecap="round" stroke-linejoin="round"/>
<path d="M147.864 387.788L142.24 389.351L143.803 394.977L149.427 393.414L147.864 387.788Z" stroke="#263238" stroke-width="1.146" stroke-miterlimit="10" stroke-linecap="round" stroke-linejoin="round"/>
<path d="M158.051 384.958L152.425 386.521L153.988 392.147L159.614 390.584L158.051 384.958Z" stroke="#263238" stroke-width="1.146" stroke-miterlimit="10" stroke-linecap="round" stroke-linejoin="round"/>
<path d="M168.237 382.128L162.612 383.69L164.175 389.316L169.8 387.753L168.237 382.128Z" stroke="#263238" stroke-width="1.146" stroke-miterlimit="10" stroke-linecap="round" stroke-linejoin="round"/>
<path d="M178.423 379.297L172.798 380.86L174.361 386.486L179.986 384.923L178.423 379.297Z" stroke="#263238" stroke-width="1.146" stroke-miterlimit="10" stroke-linecap="round" stroke-linejoin="round"/>
<path d="M134.136 375.56C134.351 376.337 133.896 377.142 133.121 377.357C132.344 377.573 131.539 377.119 131.324 376.342C131.108 375.565 131.562 374.76 132.339 374.545C133.116 374.329 133.92 374.783 134.136 375.56Z" fill="#263238"/>
<path d="M131.84 306.872L132.973 307.868L134.825 303.632" stroke="#263238" stroke-width="2.292" stroke-miterlimit="10" stroke-linecap="round" stroke-linejoin="round"/>
<path d="M129.074 336.889L130.206 337.885L132.058 333.648" stroke="#263238" stroke-width="2.292" stroke-miterlimit="10" stroke-linecap="round" stroke-linejoin="round"/>
<path d="M136.542 363.513L137.675 364.508L139.528 360.271" stroke="#263238" stroke-width="2.292" stroke-miterlimit="10" stroke-linecap="round" stroke-linejoin="round"/>
<path d="M164.591 385.321L165.723 386.317L167.575 382.08" stroke="#263238" stroke-width="2.292" stroke-miterlimit="10" stroke-linecap="round" stroke-linejoin="round"/>
<path d="M235.354 214.337L139.988 223.496L153.754 366.828L249.12 357.669L235.354 214.337Z" fill="white" stroke="#263238" stroke-width="1.146" stroke-miterlimit="10" stroke-linecap="round" stroke-linejoin="round"/>
<path d="M148.124 232.227L172.941 229.843" stroke="#263238" stroke-width="2.292" stroke-miterlimit="10" stroke-linecap="round" stroke-linejoin="round"/>
<path d="M148.581 236.992L165.457 235.37" stroke="#263238" stroke-width="2.292" stroke-miterlimit="10" stroke-linecap="round" stroke-linejoin="round"/>
<path d="M155.709 247.659L227.097 240.801" stroke="#263238" stroke-width="2.292" stroke-miterlimit="10" stroke-linecap="round" stroke-linejoin="round"/>
<path d="M156.167 252.422L227.554 245.566" stroke="#263238" stroke-width="2.292" stroke-miterlimit="10" stroke-linecap="round" stroke-linejoin="round"/>
<path d="M156.701 257.982L217.588 252.133" stroke="#263238" stroke-width="2.292" stroke-miterlimit="10" stroke-linecap="round" stroke-linejoin="round"/>
<path d="M163.291 262.455L157.48 263.013L158.039 268.825L163.85 268.267L163.291 262.455Z" stroke="#263238" stroke-width="1.146" stroke-miterlimit="10" stroke-linecap="round" stroke-linejoin="round"/>
<path d="M173.821 261.44L168.009 261.998L168.567 267.81L174.379 267.252L173.821 261.44Z" stroke="#263238" stroke-width="1.146" stroke-miterlimit="10" stroke-linecap="round" stroke-linejoin="round"/>
<path d="M184.343 260.429L178.532 260.988L179.091 266.8L184.902 266.241L184.343 260.429Z" stroke="#263238" stroke-width="1.146" stroke-miterlimit="10" stroke-linecap="round" stroke-linejoin="round"/>
<path d="M194.868 259.419L189.056 259.977L189.614 265.788L195.426 265.229L194.868 259.419Z" stroke="#263238" stroke-width="1.146" stroke-miterlimit="10" stroke-linecap="round" stroke-linejoin="round"/>
<path d="M151.909 248.023C151.986 248.825 151.398 249.538 150.596 249.616C149.794 249.693 149.081 249.105 149.004 248.303C148.927 247.5 149.515 246.788 150.317 246.711C151.118 246.633 151.831 247.221 151.909 248.023Z" fill="#263238"/>
<path d="M158.378 275.451L229.766 268.594" stroke="#263238" stroke-width="2.292" stroke-miterlimit="10" stroke-linecap="round" stroke-linejoin="round"/>
<path d="M158.836 280.215L230.225 273.359" stroke="#263238" stroke-width="2.292" stroke-miterlimit="10" stroke-linecap="round" stroke-linejoin="round"/>
<path d="M159.37 285.774L220.257 279.925" stroke="#263238" stroke-width="2.292" stroke-miterlimit="10" stroke-linecap="round" stroke-linejoin="round"/>
<path d="M165.968 290.243L160.156 290.801L160.714 296.613L166.526 296.055L165.968 290.243Z" stroke="#263238" stroke-width="1.146" stroke-miterlimit="10" stroke-linecap="round" stroke-linejoin="round"/>
<path d="M176.491 289.232L170.679 289.791L171.237 295.603L177.049 295.044L176.491 289.232Z" stroke="#263238" stroke-width="1.146" stroke-miterlimit="10" stroke-linecap="round" stroke-linejoin="round"/>
<path d="M187.018 288.218L181.208 288.776L181.766 294.588L187.577 294.03L187.018 288.218Z" stroke="#263238" stroke-width="1.146" stroke-miterlimit="10" stroke-linecap="round" stroke-linejoin="round"/>
<path d="M197.532 287.215L191.72 287.774L192.278 293.585L198.09 293.026L197.532 287.215Z" stroke="#263238" stroke-width="1.146" stroke-miterlimit="10" stroke-linecap="round" stroke-linejoin="round"/>
<path d="M154.578 275.816C154.655 276.618 154.067 277.331 153.265 277.409C152.463 277.486 151.75 276.898 151.672 276.096C151.595 275.293 152.183 274.581 152.985 274.503C153.789 274.426 154.501 275.014 154.578 275.816Z" fill="#263238"/>
<path d="M161.049 303.244L232.436 296.386" stroke="#263238" stroke-width="2.292" stroke-miterlimit="10" stroke-linecap="round" stroke-linejoin="round"/>
<path d="M161.506 308.008L232.894 301.15" stroke="#263238" stroke-width="2.292" stroke-miterlimit="10" stroke-linecap="round" stroke-linejoin="round"/>
<path d="M162.04 313.566L222.926 307.718" stroke="#263238" stroke-width="2.292" stroke-miterlimit="10" stroke-linecap="round" stroke-linejoin="round"/>
<path d="M168.634 318.036L162.823 318.594L163.381 324.406L169.192 323.848L168.634 318.036Z" stroke="#263238" stroke-width="1.146" stroke-miterlimit="10" stroke-linecap="round" stroke-linejoin="round"/>
<path d="M179.152 317.029L173.341 317.587L173.9 323.399L179.71 322.841L179.152 317.029Z" stroke="#263238" stroke-width="1.146" stroke-miterlimit="10" stroke-linecap="round" stroke-linejoin="round"/>
<path d="M189.689 316.01L183.877 316.568L184.435 322.38L190.247 321.822L189.689 316.01Z" stroke="#263238" stroke-width="1.146" stroke-miterlimit="10" stroke-linecap="round" stroke-linejoin="round"/>
<path d="M200.206 315.003L194.394 315.562L194.953 321.374L200.765 320.815L200.206 315.003Z" stroke="#263238" stroke-width="1.146" stroke-miterlimit="10" stroke-linecap="round" stroke-linejoin="round"/>
<path d="M157.248 303.609C157.325 304.411 156.737 305.124 155.935 305.202C155.133 305.278 154.42 304.69 154.342 303.888C154.265 303.086 154.853 302.373 155.655 302.295C156.458 302.219 157.17 302.806 157.248 303.609Z" fill="#263238"/>
<path d="M163.794 331.83L235.182 324.974" stroke="#263238" stroke-width="2.292" stroke-miterlimit="10" stroke-linecap="round" stroke-linejoin="round"/>
<path d="M164.252 336.595L235.639 329.738" stroke="#263238" stroke-width="2.292" stroke-miterlimit="10" stroke-linecap="round" stroke-linejoin="round"/>
<path d="M164.786 342.153L225.671 336.305" stroke="#263238" stroke-width="2.292" stroke-miterlimit="10" stroke-linecap="round" stroke-linejoin="round"/>
<path d="M171.381 346.621L165.569 347.18L166.127 352.991L171.939 352.432L171.381 346.621Z" stroke="#263238" stroke-width="1.146" stroke-miterlimit="10" stroke-linecap="round" stroke-linejoin="round"/>
<path d="M181.905 345.611L176.093 346.169L176.651 351.981L182.463 351.423L181.905 345.611Z" stroke="#263238" stroke-width="1.146" stroke-miterlimit="10" stroke-linecap="round" stroke-linejoin="round"/>
<path d="M192.428 344.6L186.616 345.159L187.174 350.971L192.987 350.413L192.428 344.6Z" stroke="#263238" stroke-width="1.146" stroke-miterlimit="10" stroke-linecap="round" stroke-linejoin="round"/>
<path d="M202.959 343.585L197.147 344.143L197.705 349.955L203.517 349.397L202.959 343.585Z" stroke="#263238" stroke-width="1.146" stroke-miterlimit="10" stroke-linecap="round" stroke-linejoin="round"/>
<path d="M159.994 332.196C160.071 332.998 159.483 333.711 158.681 333.788C157.879 333.864 157.166 333.276 157.088 332.474C157.011 331.672 157.599 330.959 158.401 330.881C159.203 330.804 159.916 331.394 159.994 332.196Z" fill="#263238"/>
<path d="M159.799 265.125L160.74 266.303L163.304 262.455" stroke="#263238" stroke-width="2.292" stroke-miterlimit="10" stroke-linecap="round" stroke-linejoin="round"/>
<path d="M183.483 290.548L184.425 291.726L186.987 287.877" stroke="#263238" stroke-width="2.292" stroke-miterlimit="10" stroke-linecap="round" stroke-linejoin="round"/>
<path d="M175.685 319.931L176.626 321.109L179.189 317.26" stroke="#263238" stroke-width="2.292" stroke-miterlimit="10" stroke-linecap="round" stroke-linejoin="round"/>
<path d="M199.325 346.278L200.266 347.455L202.828 343.606" stroke="#263238" stroke-width="2.292" stroke-miterlimit="10" stroke-linecap="round" stroke-linejoin="round"/>
<path d="M351.99 157.818H292.786C288.431 157.818 284.901 161.349 284.901 165.702V216.557C284.901 220.912 288.432 224.443 292.786 224.443H319.028L334.06 242.568L330.292 224.443H351.99C356.345 224.443 359.875 220.912 359.875 216.557V165.702C359.875 161.348 356.345 157.818 351.99 157.818Z" fill="white" stroke="#263238" stroke-width="1.146" stroke-miterlimit="10" stroke-linecap="round" stroke-linejoin="round"/>
<path d="M327.122 185.737V180.35L323.087 180.003C322.847 179.152 322.513 178.341 322.089 177.585L324.694 174.49L320.886 170.682L317.79 173.286C317.034 172.862 316.224 172.529 315.372 172.288L315.025 168.253H309.639L309.292 172.288C308.44 172.529 307.63 172.862 306.874 173.286L303.778 170.682L299.97 174.49L302.575 177.585C302.151 178.341 301.817 179.152 301.578 180.003L297.543 180.35V185.737L301.578 186.084C301.819 186.935 302.152 187.745 302.575 188.502L299.97 191.597L303.778 195.405L306.874 192.801C307.63 193.225 308.44 193.558 309.292 193.798L309.639 197.833H315.025L315.372 193.798C316.224 193.557 317.034 193.223 317.79 192.801L320.886 195.405L324.694 191.597L322.089 188.502C322.513 187.745 322.847 186.935 323.087 186.084L327.122 185.737ZM312.331 189.302C308.875 189.302 306.073 186.5 306.073 183.042C306.073 179.586 308.875 176.783 312.331 176.783C315.787 176.783 318.59 179.585 318.59 183.042C318.59 186.5 315.788 189.302 312.331 189.302Z" fill="#96EAC0"/>
<path d="M344.944 197.76V193.927L342.073 193.68C341.902 193.074 341.665 192.497 341.362 191.96L343.216 189.757L340.505 187.047L338.303 188.9C337.765 188.598 337.188 188.361 336.582 188.189L336.335 185.319H332.503L332.255 188.189C331.649 188.36 331.073 188.597 330.535 188.9L328.332 187.047L325.622 189.757L327.475 191.96C327.174 192.497 326.937 193.075 326.766 193.68L323.895 193.927V197.76L326.766 198.007C326.937 198.613 327.174 199.19 327.475 199.727L325.622 201.93L328.332 204.64L330.535 202.787C331.073 203.088 331.65 203.326 332.255 203.496L332.503 206.367H336.335L336.582 203.496C337.189 203.326 337.765 203.088 338.303 202.787L340.505 204.64L343.216 201.93L341.362 199.727C341.664 199.19 341.901 198.612 342.073 198.007L344.944 197.76ZM334.419 200.297C331.96 200.297 329.966 198.303 329.966 195.843C329.966 193.384 331.96 191.39 334.419 191.39C336.878 191.39 338.872 193.384 338.872 195.843C338.872 198.303 336.878 200.297 334.419 200.297Z" fill="#96EAC0"/>
<path d="M326.194 206.687V203.959L324.151 203.783C324.029 203.352 323.86 202.942 323.645 202.559L324.964 200.991L323.036 199.062L321.468 200.381C321.085 200.167 320.675 199.998 320.244 199.876L320.067 197.833H317.34L317.164 199.876C316.733 199.998 316.322 200.167 315.94 200.381L314.372 199.062L312.443 200.991L313.762 202.559C313.548 202.942 313.378 203.352 313.257 203.783L311.214 203.959V206.687L313.257 206.863C313.378 207.294 313.548 207.704 313.762 208.087L312.443 209.655L314.372 211.584L315.94 210.265C316.322 210.479 316.733 210.648 317.164 210.77L317.34 212.813H320.067L320.244 210.77C320.675 210.648 321.085 210.48 321.468 210.265L323.036 211.584L324.964 209.655L323.645 208.087C323.86 207.704 324.029 207.294 324.151 206.863L326.194 206.687ZM318.705 208.492C316.955 208.492 315.536 207.073 315.536 205.323C315.536 203.573 316.955 202.154 318.705 202.154C320.455 202.154 321.874 203.573 321.874 205.323C321.874 207.073 320.456 208.492 318.705 208.492Z" fill="#96EAC0"/>
<path d="M320.804 353.388L366.961 523.665H373.864L327.708 353.388H320.804Z" fill="#757575" stroke="#263238" stroke-width="1.146" stroke-miterlimit="10" stroke-linecap="round" stroke-linejoin="round"/>
<path d="M424.764 475.393H337.264V482.517H424.764V475.393Z" fill="#999999" stroke="#263238" stroke-width="1.146" stroke-miterlimit="10" stroke-linecap="round" stroke-linejoin="round"/>
<path d="M471.438 315.139L414.914 523.665H408.01L464.535 315.139C466.619 307.448 461.839 301.196 453.872 301.196H405.165C397.213 301.196 389.029 307.448 386.945 315.139L330.42 523.665H323.518L380.042 315.139C383.127 303.755 395.181 294.532 406.972 294.532H455.679C467.469 294.532 474.523 303.757 471.438 315.139Z" fill="#757575" stroke="#263238" stroke-width="1.146" stroke-miterlimit="10" stroke-linecap="round" stroke-linejoin="round"/>
<path d="M472.335 315.207L458.308 366.984C457.151 371.258 452.624 374.719 448.201 374.719H368.164C363.74 374.719 361.093 371.258 362.251 366.984L376.289 315.207C377.447 310.944 381.973 307.472 386.397 307.472H466.422C470.846 307.472 473.493 310.944 472.335 315.207Z" fill="#96EAC0"/>
<mask id="mask2_122_665" style="mask-type:luminance" maskUnits="userSpaceOnUse" x="361" y="307" width="112" height="68">
<path d="M472.335 315.207L458.308 366.984C457.151 371.258 452.624 374.719 448.201 374.719H368.164C363.74 374.719 361.093 371.258 362.251 366.984L376.289 315.207C377.447 310.944 381.973 307.472 386.397 307.472H466.422C470.846 307.472 473.493 310.944 472.335 315.207Z" fill="white"/>
</mask>
<g mask="url(#mask2_122_665)">
<path opacity="0.2" d="M472.335 315.207L458.308 366.984C457.151 371.258 452.624 374.719 448.201 374.719H368.164C363.74 374.719 361.093 371.258 362.251 366.984L376.289 315.207C377.447 310.944 381.973 307.472 386.397 307.472H427.779C445.668 325.842 443.387 359.603 442.218 369.803C445.886 368.932 449.232 365.918 450.206 362.331L464.245 310.555C464.543 309.455 464.588 308.412 464.417 307.472H466.422C470.846 307.472 473.493 310.944 472.335 315.207Z" fill="black" fill-opacity="0.7"/>
</g>
<path d="M472.335 315.207L458.308 366.984C457.151 371.258 452.624 374.719 448.201 374.719H368.164C363.74 374.719 361.093 371.258 362.251 366.984L376.289 315.207C377.447 310.944 381.973 307.472 386.397 307.472H466.422C470.846 307.472 473.493 310.944 472.335 315.207Z" stroke="#263238" stroke-width="1.146" stroke-miterlimit="10" stroke-linecap="round" stroke-linejoin="round"/>
<path d="M425.284 427.122L451.454 523.665H458.356L432.188 427.122H425.284Z" fill="#757575" stroke="#263238" stroke-width="1.146" stroke-miterlimit="10" stroke-linecap="round" stroke-linejoin="round"/>
<path d="M432.214 416.044V425.487H329.166V416.044C329.166 412.205 332.271 409.099 336.11 409.099H425.258C428.466 409.099 431.171 411.265 431.973 414.222C432.134 414.795 432.214 415.414 432.214 416.044Z" fill="#96EAC0"/>
<mask id="mask3_122_665" style="mask-type:luminance" maskUnits="userSpaceOnUse" x="329" y="409" width="104" height="17">
<path d="M432.214 416.044V425.487H329.166V416.044C329.166 412.205 332.271 409.099 336.11 409.099H425.258C428.466 409.099 431.171 411.265 431.973 414.222C432.134 414.795 432.214 415.414 432.214 416.044Z" fill="white"/>
</mask>
<g mask="url(#mask3_122_665)">
<path opacity="0.2" d="M431.973 414.222C428.638 418.141 422.656 422.129 412.365 425.487H329.166V416.044C329.166 412.205 332.271 409.099 336.11 409.099H425.258C428.466 409.099 431.171 411.265 431.973 414.222Z" fill="black" fill-opacity="0.7"/>
</g>
<path d="M432.214 416.044V425.487H329.166V416.044C329.166 412.205 332.271 409.099 336.11 409.099H425.258C428.466 409.099 431.171 411.265 431.973 414.222C432.134 414.795 432.214 415.414 432.214 416.044Z" stroke="#263238" stroke-width="1.146" stroke-miterlimit="10" stroke-linecap="round" stroke-linejoin="round"/>
<path d="M435.715 431.453H326.562C325.482 431.453 324.607 430.577 324.607 429.498V424.548C324.607 423.469 325.482 422.593 326.562 422.593H435.715C436.794 422.593 437.67 423.469 437.67 424.548V429.498C437.67 430.577 436.794 431.453 435.715 431.453Z" fill="#999999" stroke="#263238" stroke-width="1.146" stroke-miterlimit="10" stroke-linecap="round" stroke-linejoin="round"/>
<path d="M325.819 422.92C320.88 427.951 344.82 507.002 344.82 507.002C342.207 509.271 338.357 510.348 334.712 510.829C329.441 511.529 324.616 510.978 324.616 510.978C324.616 510.978 290.305 427.756 299.748 407.105C309.191 386.454 367.786 377 367.786 377L370.284 370.811L400.596 366.548L405.604 403.667C405.604 403.667 400.63 404.148 393.147 405.111C373.08 407.689 334.896 413.683 325.819 422.92Z" fill="#263238"/>
<mask id="mask4_122_665" style="mask-type:luminance" maskUnits="userSpaceOnUse" x="298" y="366" width="108" height="146">
<path d="M325.819 422.92C320.88 427.951 344.82 507.002 344.82 507.002C342.207 509.271 338.357 510.348 334.712 510.829C329.441 511.529 324.616 510.978 324.616 510.978C324.616 510.978 290.305 427.756 299.748 407.105C309.191 386.454 367.786 377 367.786 377L370.284 370.811L400.596 366.548L405.604 403.667C405.604 403.667 400.63 404.148 393.147 405.111C373.08 407.689 334.896 413.683 325.819 422.92Z" fill="white"/>
</mask>
<g mask="url(#mask4_122_665)">
<path opacity="0.3" d="M344.82 507.002C342.207 509.271 338.356 510.348 334.712 510.83C328.054 486.076 311.105 420.021 317.534 411.941C325.453 401.971 364.646 392.906 364.646 392.906C364.806 387.818 378.547 383.234 378.547 383.234L393.147 405.111C373.08 407.69 334.896 413.683 325.819 422.92C320.88 427.951 344.82 507.002 344.82 507.002Z" fill="black"/>
</g>
<path d="M325.819 422.92C320.88 427.951 344.82 507.002 344.82 507.002C342.207 509.271 338.357 510.348 334.712 510.829C329.441 511.529 324.616 510.978 324.616 510.978C324.616 510.978 290.305 427.756 299.748 407.105C309.191 386.454 367.786 377 367.786 377L370.284 370.811L400.596 366.548L405.604 403.667C405.604 403.667 400.63 404.148 393.147 405.111C373.08 407.689 334.896 413.683 325.819 422.92Z" stroke="#263238" stroke-width="1.146" stroke-miterlimit="10" stroke-linecap="round" stroke-linejoin="round"/>
<path d="M308.864 348.056C303.829 347.188 339.645 315.792 339.645 315.792L356.91 327.416C356.91 327.416 327.523 348.108 322.908 348.675C318.292 349.243 308.864 348.056 308.864 348.056Z" fill="white"/>
<mask id="mask5_122_665" style="mask-type:luminance" maskUnits="userSpaceOnUse" x="308" y="315" width="49" height="34">
<path d="M308.864 348.056C303.829 347.188 339.645 315.792 339.645 315.792L356.91 327.416C356.91 327.416 327.523 348.108 322.908 348.675C318.292 349.243 308.864 348.056 308.864 348.056Z" fill="white"/>
</mask>
<g mask="url(#mask5_122_665)">
<path opacity="0.2" d="M308.864 348.056C303.829 347.188 339.645 315.792 339.645 315.792L356.91 327.416C356.91 327.416 327.523 348.108 322.908 348.675C318.292 349.243 308.864 348.056 308.864 348.056Z" fill="black" fill-opacity="0.7"/>
</g>
<path d="M308.864 348.056C303.829 347.188 339.645 315.792 339.645 315.792L356.91 327.416C356.91 327.416 327.523 348.108 322.908 348.675C318.292 349.243 308.864 348.056 308.864 348.056Z" stroke="#263238" stroke-width="1.146" stroke-miterlimit="10" stroke-linecap="round" stroke-linejoin="round"/>
<path d="M315.177 334.848C315.177 334.848 322.685 336.714 324.978 338.317C327.271 339.919 326.625 345.566 326.625 345.566C326.625 345.566 316.596 342.707 315.177 334.848Z" fill="white" stroke="#263238" stroke-width="1.146" stroke-miterlimit="10" stroke-linecap="round" stroke-linejoin="round"/>
<path d="M310.361 320.473L324.315 347.236H325.968L312.714 319.152L310.361 320.473Z" fill="#263238"/>
<path d="M322.943 339.822C322.943 339.822 314.142 333.564 311.99 333.564C309.839 333.564 303.385 341.188 303.385 345.003C303.385 348.818 317.45 350.941 320.205 347.694C321.574 346.081 318.853 342.185 318.853 342.185C318.853 342.185 322.943 346.423 324.116 347.058C325.29 347.694 327.441 346.862 327.441 346.862C327.441 346.862 324.507 342.185 322.943 339.822Z" fill="white" stroke="#263238" stroke-width="1.146" stroke-miterlimit="10" stroke-linecap="round" stroke-linejoin="round"/>
<path d="M318.853 348.6C318.853 348.6 315.511 344.255 311.501 342.186" stroke="#263238" stroke-width="1.146" stroke-miterlimit="10" stroke-linecap="round" stroke-linejoin="round"/>
<path d="M318.853 342.186C318.853 342.186 315.804 339.529 313.751 338.942" stroke="#263238" stroke-width="1.146" stroke-miterlimit="10" stroke-linecap="round" stroke-linejoin="round"/>
<path d="M309.26 345.567C309.26 345.567 314.191 348.16 315.414 349.261" stroke="#263238" stroke-width="1.146" stroke-miterlimit="10" stroke-linecap="round" stroke-linejoin="round"/>
<path d="M350.865 302.062C346.353 305.209 326.131 326.003 326.131 326.003C326.131 326.003 335.608 336.781 343.913 338.348L366.43 327.417L350.865 302.062Z" fill="#96EAC0" stroke="#263238" stroke-width="1.146" stroke-miterlimit="10" stroke-linecap="round" stroke-linejoin="round"/>
<path opacity="0.4" d="M350.865 302.062C346.353 305.209 326.131 326.003 326.131 326.003C326.131 326.003 335.608 336.781 343.913 338.348L366.43 327.417L350.865 302.062Z" fill="white" stroke="#263238" stroke-width="1.146" stroke-miterlimit="10" stroke-linecap="round" stroke-linejoin="round"/>
<path d="M339.984 498.611L349.505 523.665C349.505 523.665 351.092 530.119 322.303 528.079L306.436 526.719L339.984 498.611Z" fill="#96EAC0"/>
<mask id="mask6_122_665" style="mask-type:luminance" maskUnits="userSpaceOnUse" x="306" y="498" width="44" height="31">
<path d="M339.984 498.611L349.505 523.665C349.505 523.665 351.092 530.119 322.303 528.079L306.436 526.719L339.984 498.611Z" fill="white"/>
</mask>
<g mask="url(#mask6_122_665)">
<path opacity="0.3" d="M339.984 498.611L349.505 523.665C349.505 523.665 351.092 530.119 322.303 528.079L306.436 526.719L339.984 498.611Z" fill="black"/>
</g>
<path d="M339.984 498.611L349.505 523.665C349.505 523.665 351.092 530.119 322.303 528.079L306.436 526.719L339.984 498.611Z" stroke="#263238" stroke-width="1.146" stroke-miterlimit="10" stroke-linecap="round" stroke-linejoin="round"/>
<path d="M336.357 510.625C336.357 510.625 338.397 520.371 336.357 527.626C336.357 527.626 305.982 532.386 299.18 530.572C292.38 528.759 288.261 525.37 288.054 523.664C288.054 523.664 288.3 519.011 295.101 517.651C301.901 516.29 315.453 515.384 320.804 507.677C326.156 499.971 336.357 510.625 336.357 510.625Z" fill="#96EAC0" stroke="#263238" stroke-width="1.146" stroke-miterlimit="10" stroke-linecap="round" stroke-linejoin="round"/>
<path d="M376.45 369.842C386.158 355.996 430.777 372.659 430.777 372.659C430.777 372.659 435.035 405.984 417.261 414.872C399.488 423.759 373.862 423.285 366.94 430.494L338.769 513.674C338.769 513.674 328.653 517.906 313.934 511.241C313.934 511.241 331.822 448.425 337.07 426.125C342.262 404.059 375.88 389.074 375.88 389.074C375.88 389.074 373.052 385.873 372.009 382.109" fill="#263238"/>
<path d="M376.45 369.842C386.158 355.996 430.777 372.659 430.777 372.659C430.777 372.659 435.035 405.984 417.261 414.872C399.488 423.759 373.862 423.285 366.94 430.494L338.769 513.674C338.769 513.674 328.653 517.906 313.934 511.241C313.934 511.241 331.822 448.425 337.07 426.125C342.262 404.059 375.88 389.074 375.88 389.074C375.88 389.074 373.052 385.873 372.009 382.109" stroke="#263238" stroke-width="1.146" stroke-miterlimit="10" stroke-linecap="round" stroke-linejoin="round"/>
<path d="M421.631 401.696C420.203 402.963 418.697 404.141 417.128 405.229" stroke="white" stroke-width="1.146" stroke-miterlimit="10" stroke-linecap="round" stroke-linejoin="round"/>
<path d="M425.284 373.472C428.923 381.375 429.209 391.421 424.106 398.739" stroke="white" stroke-width="1.146" stroke-miterlimit="10" stroke-linecap="round" stroke-linejoin="round"/>
<path d="M415.118 374.719C415.118 374.719 414.184 380.811 416.904 383.229C419.625 385.647 427.953 386.883 427.953 386.883" stroke="white" stroke-width="1.146" stroke-miterlimit="10" stroke-linecap="round" stroke-linejoin="round"/>
<path d="M378.531 375.014C378.531 375.014 378.912 381.093 376.45 380.801C373.986 380.51 373.863 383.23 373.863 383.23" stroke="white" stroke-width="1.146" stroke-miterlimit="10" stroke-linecap="round" stroke-linejoin="round"/>
<path d="M351.453 306.733C351.081 305.119 350.865 303.545 350.865 302.062C350.865 302.062 364.649 290.468 382.318 290.528C403.402 290.601 416.293 297.232 421.459 306.446C429.634 321.027 430.778 372.659 430.778 372.659C430.778 372.659 377.873 380.819 370.281 370.807C368.965 369.072 369.974 356.767 369.974 356.767C369.974 356.767 364.05 341.233 362.8 329.178C362.8 329.178 360.52 326.109 357.953 321.732C356.261 318.844 354.442 315.387 353.071 311.866" fill="#96EAC0"/>
<path d="M351.453 306.733C351.081 305.119 350.865 303.545 350.865 302.062C350.865 302.062 364.649 290.468 382.318 290.528C403.402 290.601 416.293 297.232 421.459 306.446C429.634 321.027 430.778 372.659 430.778 372.659C430.778 372.659 377.873 380.819 370.281 370.807C368.965 369.072 369.974 356.767 369.974 356.767C369.974 356.767 364.05 341.233 362.8 329.178C362.8 329.178 360.52 326.109 357.953 321.732C356.261 318.844 354.442 315.387 353.071 311.866" stroke="#263238" stroke-width="1.146" stroke-miterlimit="10" stroke-linecap="round" stroke-linejoin="round"/>
<g opacity="0.6">
<path d="M351.453 306.733C351.081 305.119 350.865 303.545 350.865 302.062C350.865 302.062 364.649 290.468 382.318 290.528C403.402 290.601 416.293 297.232 421.459 306.446C429.634 321.027 430.778 372.659 430.778 372.659C430.778 372.659 377.873 380.819 370.281 370.807C368.965 369.072 369.974 356.767 369.974 356.767C369.974 356.767 364.05 341.233 362.8 329.178C362.8 329.178 360.52 326.109 357.953 321.732C356.261 318.844 354.442 315.387 353.071 311.866" fill="white"/>
<path d="M351.453 306.733C351.081 305.119 350.865 303.545 350.865 302.062C350.865 302.062 364.649 290.468 382.318 290.528C403.402 290.601 416.293 297.232 421.459 306.446C429.634 321.027 430.778 372.659 430.778 372.659C430.778 372.659 377.873 380.819 370.281 370.807C368.965 369.072 369.974 356.767 369.974 356.767C369.974 356.767 364.05 341.233 362.8 329.178C362.8 329.178 360.52 326.109 357.953 321.732C356.261 318.844 354.442 315.387 353.071 311.866" stroke="#263238" stroke-width="1.146" stroke-miterlimit="10" stroke-linecap="round" stroke-linejoin="round"/>
</g>
<path d="M371.718 319.152C371.718 319.152 379.797 350.497 378.553 357.388C377.937 360.8 379.729 364.342 379.729 364.342C379.729 364.342 376.042 367.972 378.553 372.803" stroke="#263238" stroke-width="1.146" stroke-miterlimit="10" stroke-linecap="round" stroke-linejoin="round"/>
<path d="M393.151 345.079C391.574 344.946 390.129 344.57 389.092 343.8L386.696 333.303C386.696 333.303 394.084 334.115 400.885 332.31L403.455 343.8C403.455 343.8 401.55 344.356 399.057 344.751" stroke="#263238" stroke-width="1.146" stroke-miterlimit="10" stroke-linecap="round" stroke-linejoin="round"/>
<path d="M365.977 323.226C365.977 323.226 359.15 293.934 376.45 290.528C393.748 287.122 397.365 295.232 396.341 300.726C394.977 308.044 380.602 326.003 380.602 326.003L371.717 319.152L365.977 323.226Z" fill="#96EAC0" stroke="#263238" stroke-width="1.146" stroke-miterlimit="10" stroke-linecap="round" stroke-linejoin="round"/>
<path opacity="0.4" d="M365.977 323.226C365.977 323.226 359.15 293.934 376.45 290.528C393.748 287.122 397.365 295.232 396.341 300.726C394.977 308.044 380.602 326.003 380.602 326.003L371.717 319.152L365.977 323.226Z" fill="white" stroke="#263238" stroke-width="1.146" stroke-miterlimit="10" stroke-linecap="round" stroke-linejoin="round"/>
<path d="M343.22 413.654C343.22 413.654 354.421 400.711 379.728 390.937C379.728 390.937 373.17 388.927 371.717 386.207" stroke="white" stroke-width="1.146" stroke-miterlimit="10" stroke-linecap="round" stroke-linejoin="round"/>
<path d="M330.04 453.304L319.786 490.499" stroke="white" stroke-width="1.146" stroke-miterlimit="10" stroke-linecap="round" stroke-linejoin="round"/>
<path d="M409.198 346.09C409.198 346.09 413.809 353.832 432.661 353.117C432.661 353.117 427.483 347.217 419.776 345.124C412.068 343.032 409.198 346.09 409.198 346.09Z" fill="#96EAC0" stroke="#263238" stroke-width="1.146" stroke-miterlimit="10" stroke-linecap="round" stroke-linejoin="round"/>
<path d="M335.969 349.202C335.969 349.202 340.348 342.415 344.366 341.054C348.384 339.694 360.158 339.576 361.972 339.528C363.786 339.48 396.177 347.708 411.364 352.769L410.041 327.416L430.458 329.024C430.458 329.024 429.634 359.977 426.461 368.165C423.288 376.353 418.74 374.364 410.979 371.02C380.457 357.871 362.577 348.712 360.921 349.202C359.265 349.694 335.969 349.202 335.969 349.202Z" fill="white" stroke="#263238" stroke-width="1.146" stroke-miterlimit="10" stroke-linecap="round" stroke-linejoin="round"/>
<path d="M404.944 312.678C404.41 314.893 404.211 317.132 404.438 319.115C405.345 327.049 409.199 346.091 409.199 346.091C409.199 346.091 428.242 348.812 432.662 353.118C432.662 353.118 435.796 327.876 429.412 315.109C423.028 302.341 416.401 300.894 416.401 300.894C412.221 299.859 408.428 303.762 406.256 308.764" fill="#96EAC0"/>
<path d="M404.944 312.678C404.41 314.893 404.211 317.132 404.438 319.115C405.345 327.049 409.199 346.091 409.199 346.091C409.199 346.091 428.242 348.812 432.662 353.118C432.662 353.118 435.796 327.876 429.412 315.109C423.028 302.341 416.401 300.894 416.401 300.894C412.221 299.859 408.428 303.762 406.256 308.764" stroke="#263238" stroke-width="1.146" stroke-miterlimit="10" stroke-linecap="round" stroke-linejoin="round"/>
<g opacity="0.4">
<path d="M404.944 312.678C404.41 314.893 404.211 317.132 404.438 319.115C405.345 327.049 409.199 346.091 409.199 346.091C409.199 346.091 428.242 348.812 432.662 353.118C432.662 353.118 435.796 327.876 429.412 315.109C423.028 302.341 416.401 300.894 416.401 300.894C412.221 299.859 408.428 303.762 406.256 308.764" fill="white"/>
<path d="M404.944 312.678C404.41 314.893 404.211 317.132 404.438 319.115C405.345 327.049 409.199 346.091 409.199 346.091C409.199 346.091 428.242 348.812 432.662 353.118C432.662 353.118 435.796 327.876 429.412 315.109C423.028 302.341 416.401 300.894 416.401 300.894C412.221 299.859 408.428 303.762 406.256 308.764" stroke="#263238" stroke-width="1.146" stroke-miterlimit="10" stroke-linecap="round" stroke-linejoin="round"/>
</g>
<path d="M349.013 322.48C349.013 322.48 352.751 325.855 358.76 327.417" stroke="#263238" stroke-width="1.146" stroke-miterlimit="10" stroke-linecap="round" stroke-linejoin="round"/>
<path d="M409.198 322.48C409.198 322.48 416.115 335.476 424.763 338.348" stroke="#263238" stroke-width="1.146" stroke-miterlimit="10" stroke-linecap="round" stroke-linejoin="round"/>
<path d="M364.649 422.593C364.649 422.593 365.919 423.554 366.43 427.024" stroke="white" stroke-width="1.146" stroke-miterlimit="10" stroke-linecap="round" stroke-linejoin="round"/>
<path d="M359.932 427.024C359.932 427.024 363.44 427.24 365.54 430.259" stroke="white" stroke-width="1.146" stroke-miterlimit="10" stroke-linecap="round" stroke-linejoin="round"/>
<path d="M322.037 413.653C322.037 413.653 325.709 415.508 324.913 420.765" stroke="white" stroke-width="1.146" stroke-miterlimit="10" stroke-linecap="round" stroke-linejoin="round"/>
<path d="M318.165 418.172C318.165 418.172 323.174 421.14 323.532 423.808" stroke="white" stroke-width="1.146" stroke-miterlimit="10" stroke-linecap="round" stroke-linejoin="round"/>
<path d="M376.208 386.106C376.208 386.106 387.361 387.673 389.854 386.106" stroke="white" stroke-width="1.146" stroke-miterlimit="10" stroke-linecap="round" stroke-linejoin="round"/>
<path d="M371.717 317.889C371.717 317.889 370.296 314.509 370.548 309.374C370.593 308.446 370.685 307.472 370.857 306.452L368.92 303.381L366.434 299.427L369.31 287.91C369.31 287.91 387.623 291.44 389.021 296.551C390.408 301.685 371.717 317.889 371.717 317.889Z" fill="white"/>
<mask id="mask7_122_665" style="mask-type:luminance" maskUnits="userSpaceOnUse" x="366" y="287" width="24" height="31">
<path d="M371.717 317.889C371.717 317.889 370.296 314.509 370.548 309.374C370.593 308.446 370.685 307.472 370.857 306.452L368.92 303.381L366.434 299.427L369.31 287.91C369.31 287.91 387.623 291.44 389.021 296.551C390.408 301.685 371.717 317.889 371.717 317.889Z" fill="white"/>
</mask>
<g mask="url(#mask7_122_665)">
<path opacity="0.2" d="M370.548 309.375C370.593 308.446 370.685 307.472 370.857 306.452L368.92 303.381C372.095 302.751 375.567 301.341 377.871 298.362C377.871 298.362 378.478 306.303 370.548 309.375Z" fill="black" fill-opacity="0.7"/>
</g>
<path d="M371.717 317.889C371.717 317.889 370.296 314.509 370.548 309.374C370.593 308.446 370.685 307.472 370.857 306.452L368.92 303.381L366.434 299.427L369.31 287.91C369.31 287.91 387.623 291.44 389.021 296.551C390.408 301.685 371.717 317.889 371.717 317.889Z" stroke="#263238" stroke-width="1.146" stroke-miterlimit="10" stroke-linecap="round" stroke-linejoin="round"/>
<path d="M383.227 288.931C388.895 273.988 385.151 248.671 357.64 253.532C341.446 256.394 339.562 275.902 344.97 284.559C350.378 293.215 344.632 293.5 352.745 299.922C356.024 302.519 358.681 306.939 362.598 307.216C367.256 307.545 373.234 303.129 377.687 298.367" fill="white"/>
<path d="M383.227 288.931C388.895 273.988 385.151 248.671 357.64 253.532C341.446 256.394 339.562 275.902 344.97 284.559C350.378 293.215 344.632 293.5 352.745 299.922C356.024 302.519 358.681 306.939 362.598 307.216C367.256 307.545 373.234 303.129 377.687 298.367" stroke="#263238" stroke-width="1.146" stroke-miterlimit="10" stroke-linecap="round" stroke-linejoin="round"/>
<path d="M356.124 284.559C356.124 284.559 360.18 280.878 364.996 282.399" stroke="#263238" stroke-width="1.146" stroke-miterlimit="10" stroke-linecap="round" stroke-linejoin="round"/>
<path d="M348.518 284.559C348.518 284.559 347.138 281.641 343.265 281.006" stroke="#263238" stroke-width="1.146" stroke-miterlimit="10" stroke-linecap="round" stroke-linejoin="round"/>
<path d="M351.199 289.876C351.199 289.876 350.62 292.851 349.853 295.855C349.109 298.77 354.661 297.218 354.412 296.752" fill="white"/>
<path d="M351.199 289.876C351.199 289.876 350.62 292.851 349.853 295.855C349.109 298.77 354.661 297.218 354.412 296.752" stroke="#263238" stroke-width="1.146" stroke-miterlimit="10" stroke-linecap="round" stroke-linejoin="round"/>
<path d="M357.31 300.565C357.31 300.565 360.866 299.715 363.346 296.607" stroke="#263238" stroke-width="1.146" stroke-miterlimit="10" stroke-linecap="round" stroke-linejoin="round"/>
<path d="M361.765 288.334C361.992 289.167 361.649 289.986 360.998 290.163C360.347 290.34 359.635 289.808 359.409 288.975C359.182 288.142 359.524 287.323 360.175 287.146C360.825 286.969 361.537 287.5 361.765 288.334Z" fill="#263238"/>
<path d="M349.5 288.077C349.727 288.91 349.56 289.682 349.125 289.8C348.691 289.918 348.156 289.339 347.928 288.506C347.701 287.673 347.868 286.901 348.303 286.783C348.737 286.665 349.272 287.244 349.5 288.077Z" fill="#263238"/>
<path d="M366.264 269.216C366.264 269.216 361.996 280.37 351.454 280.117C351.454 280.117 355.11 277.332 356.123 274.669C356.123 274.669 348.01 282.702 339.898 278.621C331.785 274.54 335.729 255.581 348.208 248.067C360.686 240.552 373.361 242.576 377.671 249.734C377.671 249.734 386.387 248.933 390.22 261.737C393.642 273.169 388.166 290.563 382.782 290.764C374.453 291.076 372.777 282.031 372.777 282.031C372.777 282.031 367.785 277.582 366.264 269.216Z" fill="#263238" stroke="#263238" stroke-width="1.146" stroke-miterlimit="10" stroke-linecap="round" stroke-linejoin="round"/>
<path d="M375.391 288.989C375.391 288.989 375.137 278.469 381.094 279.736C387.052 281.004 382.741 293.172 378.242 293.046" fill="white"/>
<path d="M375.391 288.989C375.391 288.989 375.137 278.469 381.094 279.736C387.052 281.004 382.741 293.172 378.242 293.046" stroke="#263238" stroke-width="1.146" stroke-miterlimit="10" stroke-linecap="round" stroke-linejoin="round"/>
<path d="M356.893 355.008H264.484C263.454 355.008 262.617 354.173 262.617 353.141V349.923C262.617 348.892 263.453 348.056 264.484 348.056H356.893C357.924 348.056 358.76 348.892 358.76 349.923V353.141C358.76 354.173 357.924 355.008 356.893 355.008Z" fill="#96EAC0" stroke="#263238" stroke-width="1.146" stroke-miterlimit="10" stroke-linecap="round" stroke-linejoin="round"/>
<path d="M128.114 488.039H89.1381L93.2202 523.665H124.03L128.114 488.039Z" fill="#263238" stroke="#263238" stroke-width="1.146" stroke-miterlimit="10" stroke-linecap="round" stroke-linejoin="round"/>
<path d="M132.73 463.233C132.73 463.233 115.708 464.576 114.998 477.135C114.998 477.135 132.235 485.071 132.73 463.233Z" fill="#96EAC0" stroke="#263238" stroke-width="1.146" stroke-miterlimit="10" stroke-linecap="round" stroke-linejoin="round"/>
<path d="M99.0568 466.351C99.0568 466.351 89.5473 453.494 74.1818 460.087C74.1818 460.087 83.5652 475.631 99.0568 466.351Z" fill="#96EAC0" stroke="#263238" stroke-width="1.146" stroke-miterlimit="10" stroke-linecap="round" stroke-linejoin="round"/>
<path d="M75.4836 425.758C75.4836 425.758 72.7492 450.494 95.2635 443.682C95.2635 443.682 88.1136 425.497 75.4836 425.758Z" fill="#96EAC0" stroke="#263238" stroke-width="1.146" stroke-miterlimit="10" stroke-linecap="round" stroke-linejoin="round"/>
<path d="M103.127 411.989C103.127 411.989 85.322 421.592 98.4139 436.162C98.4139 436.162 110.902 425.755 103.127 411.989Z" fill="#96EAC0" stroke="#263238" stroke-width="1.146" stroke-miterlimit="10" stroke-linecap="round" stroke-linejoin="round"/>
<path d="M125.037 434.092C125.037 434.092 105.677 432.139 105.677 450.06C105.677 450.06 125.037 450.823 125.037 434.092Z" fill="#96EAC0" stroke="#263238" stroke-width="1.146" stroke-miterlimit="10" stroke-linecap="round" stroke-linejoin="round"/>
<path d="M106.78 502.716C106.78 502.716 115.606 484.193 107.134 465.327C98.6615 446.462 95.7965 430.576 100.223 419.377" stroke="#263238" stroke-width="1.146" stroke-miterlimit="10" stroke-linecap="round" stroke-linejoin="round"/>
<path d="M118.676 438.91C118.676 438.91 107.072 443.52 103.127 455.474" stroke="#263238" stroke-width="1.146" stroke-miterlimit="10" stroke-linecap="round" stroke-linejoin="round"/>
<path d="M81.6033 435.654C81.6033 435.654 88.3097 444.789 99.6711 443.802" stroke="#263238" stroke-width="1.146" stroke-miterlimit="10" stroke-linecap="round" stroke-linejoin="round"/>
<path d="M81.6033 462.715C81.6033 462.715 100.176 468.065 107.557 466.314" stroke="#263238" stroke-width="1.146" stroke-miterlimit="10" stroke-linecap="round" stroke-linejoin="round"/>
<path d="M127.179 468.888C127.179 468.888 118.877 478 110.527 477.858" stroke="#263238" stroke-width="1.146" stroke-miterlimit="10" stroke-linecap="round" stroke-linejoin="round"/>
<path d="M87.4626 492.278H129.788V487.253H87.4626V492.278Z" fill="#263238" stroke="#263238" stroke-width="1.146" stroke-miterlimit="10" stroke-linecap="round" stroke-linejoin="round"/>
<path d="M436.902 454.929C436.902 454.929 422.702 463.312 412.613 480.16C402.523 497.009 394.524 520.707 406.948 523.663L418.758 523.218L441.495 515.408L439.113 510.794C439.113 510.794 419.201 521.345 415.797 521.345C412.394 521.345 407.969 522.197 406.097 520.835C404.224 519.474 412.644 488.84 430.644 478.628C448.645 468.418 436.902 454.929 436.902 454.929Z" fill="#96EAC0"/>
<mask id="mask8_122_665" style="mask-type:luminance" maskUnits="userSpaceOnUse" x="400" y="454" width="42" height="70">
<path d="M436.902 454.929C436.902 454.929 422.702 463.312 412.613 480.16C402.523 497.009 394.524 520.707 406.948 523.663L418.758 523.218L441.495 515.408L439.113 510.794C439.113 510.794 419.201 521.345 415.797 521.345C412.394 521.345 407.969 522.197 406.097 520.835C404.224 519.474 412.644 488.84 430.644 478.628C448.645 468.418 436.902 454.929 436.902 454.929Z" fill="white"/>
</mask>
<g mask="url(#mask8_122_665)">
<path opacity="0.5" d="M436.902 454.929C436.902 454.929 422.702 463.312 412.613 480.16C402.523 497.009 394.524 520.707 406.948 523.663L418.758 523.218L441.495 515.408L439.113 510.794C439.113 510.794 419.201 521.345 415.797 521.345C412.394 521.345 407.969 522.197 406.097 520.835C404.224 519.474 412.644 488.84 430.644 478.628C448.645 468.418 436.902 454.929 436.902 454.929Z" fill="black" fill-opacity="0.7"/>
</g>
<path d="M436.902 454.929C436.902 454.929 422.702 463.312 412.613 480.16C402.523 497.009 394.524 520.707 406.948 523.663L418.758 523.218L441.495 515.408L439.113 510.794C439.113 510.794 419.201 521.345 415.797 521.345C412.394 521.345 407.969 522.197 406.097 520.835C404.224 519.474 412.644 488.84 430.644 478.628C448.645 468.418 436.902 454.929 436.902 454.929Z" stroke="#263238" stroke-width="1.146" stroke-miterlimit="10" stroke-linecap="round" stroke-linejoin="round"/>
<path d="M449.836 443.911C449.836 443.911 449.836 438.975 457.324 438.295C464.812 437.614 465.868 444.83 465.868 444.83H463.29C463.29 444.83 463.353 440.51 457.852 440.177C452.351 439.845 452.559 444.83 452.559 444.83L449.836 443.911Z" fill="#96EAC0" stroke="#263238" stroke-width="1.146" stroke-miterlimit="10" stroke-linecap="round" stroke-linejoin="round"/>
<path d="M438.774 523.665C422.946 523.665 425.95 452.687 427.766 449.149C429.583 445.612 475.504 443.876 480.031 445.364C484.557 446.853 502.712 517.601 492.697 523.218L438.774 523.665Z" fill="#96EAC0"/>
<mask id="mask9_122_665" style="mask-type:luminance" maskUnits="userSpaceOnUse" x="426" y="444" width="70" height="80">
<path d="M438.774 523.665C422.946 523.665 425.95 452.687 427.766 449.149C429.583 445.612 475.504 443.876 480.031 445.364C484.557 446.853 502.712 517.601 492.697 523.218L438.774 523.665Z" fill="white"/>
</mask>
<g mask="url(#mask9_122_665)">
<path opacity="0.2" d="M438.774 523.665C422.946 523.665 425.95 452.687 427.766 449.149C429.583 445.612 475.504 443.876 480.031 445.364C484.557 446.853 502.712 517.601 492.697 523.218L438.774 523.665Z" fill="black" fill-opacity="0.7"/>
</g>
<path d="M438.774 523.665C422.946 523.665 425.95 452.687 427.766 449.149C429.583 445.612 475.504 443.876 480.031 445.364C484.557 446.853 502.712 517.601 492.697 523.218L438.774 523.665Z" stroke="#263238" stroke-width="1.146" stroke-miterlimit="10" stroke-linecap="round" stroke-linejoin="round"/>
<path d="M427.767 449.149C433.499 450.377 436.797 473.606 444.508 479.521C452.22 485.435 488.588 484.157 492.699 479.521C496.809 474.884 488.772 448.812 482.92 444.829C477.067 440.845 472.92 444.717 456.478 442.888C432.096 440.177 427.767 449.149 427.767 449.149Z" fill="#96EAC0" stroke="#263238" stroke-width="1.146" stroke-miterlimit="10" stroke-linecap="round" stroke-linejoin="round"/>
<path d="M469.501 462.504L476.239 468.008C476.639 468.335 476.68 468.93 476.329 469.31L471.091 474.97C470.752 475.335 470.18 475.355 469.818 475.011L463.128 468.668C462.754 468.313 462.756 467.713 463.135 467.363L468.327 462.54C468.653 462.237 469.155 462.221 469.501 462.504Z" fill="#96EAC0"/>
<mask id="mask10_122_665" style="mask-type:luminance" maskUnits="userSpaceOnUse" x="462" y="462" width="15" height="14">
<path d="M469.501 462.504L476.239 468.008C476.639 468.335 476.68 468.93 476.329 469.31L471.091 474.97C470.752 475.335 470.18 475.355 469.818 475.011L463.128 468.668C462.754 468.313 462.756 467.713 463.135 467.363L468.327 462.54C468.653 462.237 469.155 462.221 469.501 462.504Z" fill="white"/>
</mask>
<g mask="url(#mask10_122_665)">
<path opacity="0.2" d="M469.501 462.504L476.239 468.008C476.639 468.335 476.68 468.93 476.329 469.31L471.091 474.97C470.752 475.335 470.18 475.355 469.818 475.011L463.128 468.668C462.754 468.313 462.756 467.713 463.135 467.363L468.327 462.54C468.653 462.237 469.155 462.221 469.501 462.504Z" fill="black" fill-opacity="0.7"/>
</g>
<path d="M469.501 462.504L476.239 468.008C476.639 468.335 476.68 468.93 476.329 469.31L471.091 474.97C470.752 475.335 470.18 475.355 469.818 475.011L463.128 468.668C462.754 468.313 462.756 467.713 463.135 467.363L468.327 462.54C468.653 462.237 469.155 462.221 469.501 462.504Z" stroke="#263238" stroke-width="1.146" stroke-miterlimit="10" stroke-linecap="round" stroke-linejoin="round"/>
<path d="M447.284 491.393C447.284 491.393 477.741 493.9 492.697 490.032C492.697 490.032 495.616 492.074 496.979 496.159C498.34 500.243 501.181 514.199 492.697 517.772C484.215 521.346 453.751 520.666 449.666 516.58C445.582 512.497 447.284 491.393 447.284 491.393Z" fill="#96EAC0"/>
<mask id="mask11_122_665" style="mask-type:luminance" maskUnits="userSpaceOnUse" x="446" y="490" width="53" height="31">
<path d="M447.284 491.393C447.284 491.393 477.741 493.9 492.697 490.032C492.697 490.032 495.616 492.074 496.979 496.159C498.34 500.243 501.181 514.199 492.697 517.772C484.215 521.346 453.751 520.666 449.666 516.58C445.582 512.497 447.284 491.393 447.284 491.393Z" fill="white"/>
</mask>
<g mask="url(#mask11_122_665)">
<path opacity="0.4" d="M447.284 491.393C447.284 491.393 477.741 493.9 492.697 490.032C492.697 490.032 495.616 492.074 496.979 496.159C498.34 500.243 501.181 514.199 492.697 517.772C484.215 521.346 453.751 520.666 449.666 516.58C445.582 512.497 447.284 491.393 447.284 491.393Z" fill="black" fill-opacity="0.7"/>
</g>
<path d="M447.284 491.393C447.284 491.393 477.741 493.9 492.697 490.032C492.697 490.032 495.616 492.074 496.979 496.159C498.34 500.243 501.181 514.199 492.697 517.772C484.215 521.346 453.751 520.666 449.666 516.58C445.582 512.497 447.284 491.393 447.284 491.393Z" stroke="#263238" stroke-width="1.146" stroke-miterlimit="10" stroke-linecap="round" stroke-linejoin="round"/>
<path d="M447.284 491.393C447.284 491.393 450.858 501.036 452.73 502.512C454.602 503.988 494.166 503.988 498.55 500.414C502.935 496.839 496.926 490.372 492.697 490.032C492.697 490.032 464.983 493.266 447.284 491.393Z" fill="#96EAC0" stroke="#263238" stroke-width="1.146" stroke-miterlimit="10" stroke-linecap="round" stroke-linejoin="round"/>
<path d="M434.52 489.351C434.52 489.351 435.541 509.603 437.583 514.199C437.583 514.199 432.928 516.922 427.767 514.199C422.607 511.476 423.457 494.028 424.478 494.073C425.499 494.116 434.52 489.351 434.52 489.351Z" fill="#96EAC0"/>
<mask id="mask12_122_665" style="mask-type:luminance" maskUnits="userSpaceOnUse" x="423" y="489" width="15" height="27">
<path d="M434.52 489.351C434.52 489.351 435.541 509.603 437.583 514.199C437.583 514.199 432.928 516.922 427.767 514.199C422.607 511.476 423.457 494.028 424.478 494.073C425.499 494.116 434.52 489.351 434.52 489.351Z" fill="white"/>
</mask>
<g mask="url(#mask12_122_665)">
<path opacity="0.4" d="M434.52 489.351C434.52 489.351 435.541 509.603 437.583 514.199C437.583 514.199 432.928 516.922 427.767 514.199C422.607 511.476 423.457 494.028 424.478 494.073C425.499 494.116 434.52 489.351 434.52 489.351Z" fill="black" fill-opacity="0.7"/>
</g>
<path d="M434.52 489.351C434.52 489.351 435.541 509.603 437.583 514.199C437.583 514.199 432.928 516.922 427.767 514.199C422.607 511.476 423.457 494.028 424.478 494.073C425.499 494.116 434.52 489.351 434.52 489.351Z" stroke="#263238" stroke-width="1.146" stroke-miterlimit="10" stroke-linecap="round" stroke-linejoin="round"/>
<path d="M434.52 489.351L426.852 490.884C426.852 490.884 419.543 496.499 422.777 498.371C426.009 500.243 434.349 495.649 434.52 489.351Z" fill="#96EAC0" stroke="#263238" stroke-width="1.146" stroke-miterlimit="10" stroke-linecap="round" stroke-linejoin="round"/>
</svg>
